<?xml version="1.0" encoding="UTF-8" standalone="no"?>
<!DOCTYPE svg PUBLIC "-//W3C//DTD SVG 1.1//EN" "http://www.w3.org/Graphics/SVG/1.1/DTD/svg11.dtd">
<svg width="100%" height="100%" viewBox="0 0 512 81" version="1.1" xmlns="http://www.w3.org/2000/svg" xmlns:xlink="http://www.w3.org/1999/xlink" xml:space="preserve" style="fill-rule:evenodd;clip-rule:evenodd;stroke-linejoin:round;stroke-miterlimit:1.41421;">
    <g id="Layer.-1" transform="matrix(1,0,0,1,0,-972.362)">
        <g id="rect4280.2e..-5" transform="matrix(1,0,0,1,39.7042,0)">
            <path d="M379.643,984.593L351.891,1012.35C361.109,1021.59 370.413,1030.88 379.668,1040.13L422.061,1040.13C424.578,1040.13 426.604,1038.11 426.604,1035.59L426.604,989.138C426.604,986.62 424.578,984.593 422.061,984.593L379.643,984.593Z" style="fill:rgb(91,91,91);fill-opacity:0.396078;"/>
            <path d="M422.222,982.885L422.381,982.891L422.54,982.901L422.699,982.915L422.856,982.933L423.012,982.955L423.166,982.98L423.32,983.01L423.472,983.043L423.623,983.079L423.773,983.12L423.921,983.163L424.067,983.211L424.212,983.262L424.356,983.316L424.497,983.374L424.637,983.435L424.775,983.499L424.911,983.566L425.045,983.637L425.177,983.711L425.307,983.787L425.435,983.867L425.561,983.95L425.685,984.035L425.806,984.124L425.925,984.215L426.042,984.309L426.157,984.406L426.269,984.506L426.378,984.608L426.486,984.713L426.59,984.82L426.692,984.929L426.792,985.042L426.889,985.156L426.983,985.273L427.074,985.392L427.162,985.514L427.248,985.638L427.331,985.763L427.41,985.891L427.487,986.022L427.561,986.154L427.631,986.288L427.699,986.424L427.763,986.562L427.824,986.702L427.881,986.843L427.936,986.986L427.986,987.131L428.034,987.278L428.078,987.426L428.118,987.576L428.155,987.726L428.188,987.879L428.217,988.033L428.242,988.187L428.264,988.343L428.282,988.5L428.296,988.658L428.306,988.818L428.312,988.977L428.314,989.127L428.314,1035.6L428.312,1035.75L428.306,1035.91L428.296,1036.07L428.282,1036.23L428.264,1036.38L428.242,1036.54L428.217,1036.7L428.188,1036.85L428.155,1037L428.118,1037.15L428.078,1037.3L428.034,1037.45L427.986,1037.6L427.936,1037.74L427.881,1037.88L427.824,1038.03L427.763,1038.17L427.698,1038.31L427.631,1038.44L427.56,1038.57L427.487,1038.71L427.41,1038.84L427.33,1038.96L427.247,1039.09L427.162,1039.21L427.073,1039.34L426.982,1039.45L426.888,1039.57L426.791,1039.69L426.691,1039.8L426.589,1039.91L426.485,1040.02L426.377,1040.12L426.268,1040.22L426.155,1040.32L426.041,1040.42L425.924,1040.51L425.805,1040.6L425.683,1040.69L425.559,1040.78L425.434,1040.86L425.305,1040.94L425.175,1041.02L425.043,1041.09L424.909,1041.16L424.773,1041.23L424.635,1041.29L424.496,1041.35L424.354,1041.41L424.211,1041.46L424.066,1041.51L423.92,1041.56L423.772,1041.6L423.622,1041.64L423.471,1041.68L423.319,1041.71L423.166,1041.74L423.011,1041.77L422.855,1041.79L422.698,1041.81L422.54,1041.82L422.381,1041.83L422.222,1041.84L422.072,1041.84L378.96,1041.84L371.511,1034.4L364.557,1027.44L361.081,1023.97L357.609,1020.5L354.142,1017.02L349.474,1012.35L378.935,982.883L422.072,982.883L422.222,982.885ZM380.351,986.303L354.308,1012.35L356.561,1014.61L360.028,1018.08L363.499,1021.55L366.974,1025.03L373.928,1031.98L380.376,1038.42L422.05,1038.42L422.136,1038.42L422.21,1038.42L422.283,1038.41L422.356,1038.4L422.427,1038.4L422.499,1038.39L422.569,1038.38L422.639,1038.36L422.708,1038.35L422.776,1038.33L422.843,1038.31L422.91,1038.29L422.976,1038.27L423.042,1038.25L423.106,1038.22L423.17,1038.2L423.233,1038.17L423.295,1038.14L423.356,1038.11L423.417,1038.08L423.476,1038.05L423.535,1038.01L423.593,1037.98L423.65,1037.94L423.706,1037.9L423.761,1037.86L423.814,1037.82L423.867,1037.78L423.919,1037.73L423.97,1037.69L424.02,1037.64L424.068,1037.6L424.116,1037.55L424.162,1037.5L424.207,1037.45L424.251,1037.39L424.293,1037.34L424.334,1037.29L424.374,1037.23L424.413,1037.18L424.45,1037.12L424.486,1037.06L424.521,1037L424.554,1036.94L424.586,1036.88L424.616,1036.82L424.645,1036.76L424.673,1036.7L424.699,1036.63L424.723,1036.57L424.746,1036.51L424.767,1036.44L424.787,1036.37L424.805,1036.31L424.822,1036.24L424.837,1036.17L424.85,1036.1L424.861,1036.03L424.871,1035.96L424.879,1035.88L424.886,1035.81L424.89,1035.74L424.893,1035.66L424.894,1035.58L424.894,989.149L424.893,989.063L424.89,988.989L424.886,988.916L424.879,988.844L424.871,988.772L424.861,988.701L424.85,988.63L424.837,988.561L424.822,988.492L424.805,988.423L424.787,988.356L424.767,988.289L424.746,988.223L424.723,988.158L424.698,988.093L424.672,988.029L424.645,987.967L424.616,987.904L424.586,987.843L424.554,987.782L424.521,987.723L424.486,987.664L424.45,987.606L424.412,987.549L424.374,987.493L424.334,987.438L424.292,987.384L424.25,987.331L424.206,987.279L424.161,987.228L424.114,987.179L424.067,987.13L424.019,987.083L423.969,987.036L423.918,986.991L423.866,986.947L423.813,986.905L423.759,986.863L423.704,986.823L423.648,986.784L423.591,986.747L423.533,986.711L423.475,986.676L423.415,986.643L423.355,986.611L423.293,986.581L423.231,986.552L423.168,986.525L423.105,986.499L423.04,986.474L422.975,986.451L422.909,986.43L422.842,986.41L422.775,986.392L422.706,986.375L422.638,986.36L422.568,986.347L422.498,986.336L422.427,986.326L422.355,986.318L422.283,986.311L422.209,986.307L422.136,986.304L422.05,986.303L380.351,986.303Z" style="fill:rgb(191,38,38);"/>
        </g>
        <g transform="matrix(1,0,0,1,17.2539,946.915)">
            <path d="M325.846,60.563L325.173,58.354L321.79,58.354L321.117,60.563L318.997,60.563L322.272,51.244L324.678,51.244L327.966,60.563L325.846,60.563ZM324.703,56.703C324.081,54.702 323.731,53.57 323.653,53.307C323.575,53.045 323.519,52.838 323.485,52.685C323.345,53.227 322.945,54.566 322.285,56.703L324.703,56.703Z" style="fill:rgb(119,0,0);fill-opacity:0.807843;fill-rule:nonzero;"/>
            <path d="M338.532,51.282L338.532,57.287C338.532,57.973 338.379,58.574 338.072,59.09C337.765,59.606 337.322,60.002 336.742,60.277C336.162,60.552 335.477,60.69 334.686,60.69C333.492,60.69 332.565,60.384 331.905,59.772C331.245,59.161 330.915,58.324 330.915,57.262L330.915,51.282L332.876,51.282L332.876,56.964C332.876,57.679 333.02,58.203 333.308,58.538C333.596,58.872 334.072,59.039 334.736,59.039C335.38,59.039 335.846,58.871 336.136,58.535C336.426,58.198 336.571,57.67 336.571,56.951L336.571,51.282L338.532,51.282Z" style="fill:rgb(119,0,0);fill-opacity:0.807843;fill-rule:nonzero;"/>
            <path d="M346.229,60.563L344.261,60.563L344.261,52.92L341.741,52.92L341.741,51.282L348.749,51.282L348.749,52.92L346.229,52.92L346.229,60.563Z" style="fill:rgb(119,0,0);fill-opacity:0.807843;fill-rule:nonzero;"/>
            <path d="M360.185,55.91C360.185,57.446 359.804,58.627 359.042,59.452C358.281,60.277 357.189,60.69 355.767,60.69C354.345,60.69 353.253,60.277 352.491,59.452C351.73,58.627 351.349,57.442 351.349,55.897C351.349,54.353 351.731,53.173 352.495,52.358C353.259,51.544 354.353,51.136 355.78,51.136C357.206,51.136 358.296,51.547 359.052,52.368C359.807,53.189 360.185,54.369 360.185,55.91ZM353.412,55.91C353.412,56.947 353.609,57.727 354.002,58.252C354.396,58.777 354.984,59.039 355.767,59.039C357.337,59.039 358.122,57.996 358.122,55.91C358.122,53.819 357.341,52.774 355.78,52.774C354.997,52.774 354.406,53.038 354.009,53.564C353.611,54.091 353.412,54.873 353.412,55.91Z" style="fill:rgb(119,0,0);fill-opacity:0.807843;fill-rule:nonzero;"/>
            <path d="M326.214,72.545L331.878,72.545L331.878,79.947C330.96,80.247 330.095,80.457 329.285,80.577C328.474,80.698 327.646,80.758 326.8,80.758C324.645,80.758 322.999,80.125 321.863,78.859C320.727,77.592 320.159,75.774 320.159,73.404C320.159,71.1 320.818,69.303 322.137,68.014C323.455,66.725 325.283,66.08 327.62,66.08C329.085,66.08 330.498,66.373 331.858,66.959L330.852,69.381C329.811,68.86 328.727,68.6 327.6,68.6C326.292,68.6 325.244,69.039 324.456,69.918C323.668,70.797 323.274,71.979 323.274,73.463C323.274,75.013 323.592,76.196 324.226,77.013C324.861,77.83 325.784,78.238 326.995,78.238C327.626,78.238 328.268,78.173 328.919,78.043L328.919,75.065L326.214,75.065L326.214,72.545Z" style="fill:rgb(119,0,0);fill-opacity:0.807843;fill-rule:nonzero;"/>
            <path d="M343.499,80.563L335.276,80.563L335.276,66.285L343.499,66.285L343.499,68.766L338.304,68.766L338.304,71.901L343.137,71.901L343.137,74.381L338.304,74.381L338.304,78.063L343.499,78.063L343.499,80.563Z" style="fill:rgb(119,0,0);fill-opacity:0.807843;fill-rule:nonzero;"/>
            <path d="M359.143,80.563L355.296,80.563L349.085,69.762L348.997,69.762C349.121,71.669 349.182,73.03 349.182,73.844L349.182,80.563L346.477,80.563L346.477,66.285L350.296,66.285L356.497,76.979L356.565,76.979C356.468,75.123 356.419,73.811 356.419,73.043L356.419,66.285L359.143,66.285L359.143,80.563Z" style="fill:rgb(119,0,0);fill-opacity:0.807843;fill-rule:nonzero;"/>
        </g>
    </g>
</svg>
