<?xml version="1.0" encoding="UTF-8" standalone="no"?>
<!DOCTYPE svg PUBLIC "-//W3C//DTD SVG 1.1//EN" "http://www.w3.org/Graphics/SVG/1.1/DTD/svg11.dtd">
<svg width="100%" height="100%" viewBox="0 0 512 81" version="1.1" xmlns="http://www.w3.org/2000/svg" xmlns:xlink="http://www.w3.org/1999/xlink" xml:space="preserve" style="fill-rule:evenodd;clip-rule:evenodd;">
    <g id="Layer-1" transform="matrix(1,0,0,1,0,-972.362)">
        <g id="rect4280" transform="matrix(1,0,0,1,39.7042,0)">
            <path d="M10.533,984.593C8.016,984.593 5.988,986.62 5.988,989.138L5.988,1035.59C5.988,1038.11 8.016,1040.13 10.533,1040.13L376.164,1040.13C366.909,1030.88 357.605,1021.59 348.387,1012.35L376.139,984.593L10.533,984.593Z" style="fill:url(#_Linear1);stroke:rgb(53,53,53);stroke-width:0.6px;"/>
        </g>
        <g id="rect4280.-5" transform="matrix(1,0,0,1,39.7042,0)">
            <path d="M379.643,984.593L351.891,1012.35C361.109,1021.59 370.413,1030.88 379.668,1040.13L422.061,1040.13C424.578,1040.13 426.604,1038.11 426.604,1035.59L426.604,989.138C426.604,986.62 424.578,984.593 422.061,984.593L379.643,984.593Z" style="fill:white;fill-opacity:0.811765;stroke:rgb(53,53,53);stroke-width:0.6px;"/>
        </g>
    </g>
    <defs>
        <linearGradient id="_Linear1" x1="0" y1="0" x2="1" y2="0" gradientUnits="userSpaceOnUse" gradientTransform="matrix(3.30413e-15,-53.9605,53.9605,3.30413e-15,105.941,1046.5)"><stop offset="0" style="stop-color:rgb(247,247,247);stop-opacity:0.823529"/><stop offset="0.5" style="stop-color:rgb(197,197,197);stop-opacity:0.803922"/><stop offset="1" style="stop-color:rgb(237,237,237);stop-opacity:0.937255"/></linearGradient>
    </defs>
</svg>
