<?xml version="1.0" encoding="UTF-8" standalone="no"?>
<!DOCTYPE svg PUBLIC "-//W3C//DTD SVG 1.1//EN" "http://www.w3.org/Graphics/SVG/1.1/DTD/svg11.dtd">
<svg width="100%" height="100%" viewBox="0 0 32 65" version="1.1" xmlns="http://www.w3.org/2000/svg" xmlns:xlink="http://www.w3.org/1999/xlink" xml:space="preserve" style="fill-rule:evenodd;clip-rule:evenodd;stroke-linejoin:round;stroke-miterlimit:1.41421;">
    <g id="rect4138.-5.-7.-5" transform="matrix(0.617926,0,0,0.617926,-1.88681,-599.056)">
        <path d="M16,976.436L5.033,987.403C5.033,988.139 5.033,988.78 5.033,989.518C5.033,1000.57 5.033,1043.53 5.033,1052.98C5.033,1053.72 5.033,1054.36 5.033,1055.09L16,1066.06L26.967,1055.09L26.967,1052.98L26.967,989.518L26.967,987.407L26.963,987.407L26.967,987.407L16,976.44L16,976.436Z" style="fill:rgb(64,121,215);fill-opacity:0.764706;stroke:rgb(37,51,94);stroke-width:1.62px;"/>
    </g>
    <g id="rect4138.-5.-7.-51" transform="matrix(0.617926,0,0,0.617926,14.1132,-599.056)">
        <path d="M16,976.436L5.033,987.403C5.033,988.139 5.033,988.78 5.033,989.518C5.033,1000.57 5.033,1043.53 5.033,1052.98C5.033,1053.72 5.033,1054.36 5.033,1055.09L16,1066.06L26.967,1055.09L26.967,1052.98L26.967,989.518L26.967,987.407L26.963,987.407L26.967,987.407L16,976.44L16,976.436Z" style="fill:rgb(183,65,198);fill-opacity:0.764706;stroke:rgb(90,46,89);stroke-width:1.62px;"/>
    </g>
</svg>
