<?xml version="1.0" encoding="UTF-8" standalone="no"?>
<!-- Created with Inkscape (http://www.inkscape.org/) -->

<svg
   xmlns:dc="http://purl.org/dc/elements/1.1/"
   xmlns:cc="http://creativecommons.org/ns#"
   xmlns:rdf="http://www.w3.org/1999/02/22-rdf-syntax-ns#"
   xmlns:svg="http://www.w3.org/2000/svg"
   xmlns="http://www.w3.org/2000/svg"
   xmlns:xlink="http://www.w3.org/1999/xlink"
   xmlns:sodipodi="http://sodipodi.sourceforge.net/DTD/sodipodi-0.dtd"
   xmlns:inkscape="http://www.inkscape.org/namespaces/inkscape"
   width="748.53687"
   height="494.38446"
   viewBox="0 0 701.7533 463.48545"
   id="svg2"
   version="1.1"
   inkscape:version="0.92.1 r15371"
   sodipodi:docname="_sm logo.svg">
  <defs
     id="defs4">
    <linearGradient
       id="linearGradient5999"
       inkscape:collect="always">
      <stop
         id="stop6001"
         offset="0"
         style="stop-color:#170a0d;stop-opacity:1" />
      <stop
         id="stop6003"
         offset="1"
         style="stop-color:#84283f;stop-opacity:1" />
    </linearGradient>
    <linearGradient
       inkscape:collect="always"
       id="linearGradient5990">
      <stop
         style="stop-color:#c52a47;stop-opacity:0.96470588"
         offset="0"
         id="stop5993" />
      <stop
         id="stop5995"
         offset="0.60000002"
         style="stop-color:#f0924b;stop-opacity:1" />
      <stop
         style="stop-color:#ffd53c;stop-opacity:1"
         offset="1"
         id="stop5997" />
    </linearGradient>
    <linearGradient
       id="linearGradient4747"
       inkscape:collect="always">
      <stop
         id="stop4749"
         offset="0"
         style="stop-color:#28213a;stop-opacity:1" />
      <stop
         id="stop4751"
         offset="1"
         style="stop-color:#3f3d79;stop-opacity:1" />
    </linearGradient>
    <linearGradient
       inkscape:collect="always"
       id="linearGradient4733">
      <stop
         style="stop-color:#927fcc;stop-opacity:1"
         offset="0"
         id="stop4735" />
      <stop
         id="stop4737"
         offset="0.5"
         style="stop-color:#6c4493;stop-opacity:1" />
      <stop
         style="stop-color:#927fcc;stop-opacity:1"
         offset="1"
         id="stop4739" />
    </linearGradient>
    <linearGradient
       id="linearGradient4689"
       inkscape:collect="always">
      <stop
         id="stop4691"
         offset="0"
         style="stop-color:#463815;stop-opacity:1" />
      <stop
         id="stop4693"
         offset="1"
         style="stop-color:#8c662a;stop-opacity:1" />
    </linearGradient>
    <linearGradient
       inkscape:collect="always"
       id="linearGradient4681">
      <stop
         style="stop-color:#ffb606;stop-opacity:1"
         offset="0"
         id="stop4683" />
      <stop
         id="stop4685"
         offset="0.5"
         style="stop-color:#f09000;stop-opacity:1" />
      <stop
         style="stop-color:#ffb227;stop-opacity:1"
         offset="1"
         id="stop4687" />
    </linearGradient>
    <linearGradient
       inkscape:collect="always"
       id="linearGradient4637">
      <stop
         style="stop-color:#462715;stop-opacity:1"
         offset="0"
         id="stop4639" />
      <stop
         style="stop-color:#8c462a;stop-opacity:1"
         offset="1"
         id="stop4641" />
    </linearGradient>
    <linearGradient
       id="linearGradient4629"
       inkscape:collect="always">
      <stop
         id="stop4631"
         offset="0"
         style="stop-color:#e44e0c;stop-opacity:1" />
      <stop
         style="stop-color:#e4510c;stop-opacity:1"
         offset="0.5"
         id="stop4633" />
      <stop
         id="stop4635"
         offset="1"
         style="stop-color:#f6a822;stop-opacity:1" />
    </linearGradient>
    <linearGradient
       id="linearGradient4585"
       inkscape:collect="always">
      <stop
         id="stop4587"
         offset="0"
         style="stop-color:#461d15;stop-opacity:1" />
      <stop
         id="stop4589"
         offset="1"
         style="stop-color:#8c2a2a;stop-opacity:1" />
    </linearGradient>
    <linearGradient
       inkscape:collect="always"
       id="linearGradient4571">
      <stop
         style="stop-color:#f45035;stop-opacity:1"
         offset="0"
         id="stop4573" />
      <stop
         id="stop4575"
         offset="0.5"
         style="stop-color:#b93222;stop-opacity:1" />
      <stop
         style="stop-color:#f45035;stop-opacity:1"
         offset="1"
         id="stop4577" />
    </linearGradient>
    <linearGradient
       id="linearGradient4525"
       inkscape:collect="always">
      <stop
         id="stop4527"
         offset="0"
         style="stop-color:#439bbf;stop-opacity:1" />
      <stop
         style="stop-color:#4099bc;stop-opacity:1"
         offset="0.5"
         id="stop4531" />
      <stop
         id="stop4529"
         offset="1"
         style="stop-color:#62ceef;stop-opacity:1" />
    </linearGradient>
    <linearGradient
       inkscape:collect="always"
       id="linearGradient4394">
      <stop
         style="stop-color:#21333a;stop-opacity:1"
         offset="0"
         id="stop4396" />
      <stop
         style="stop-color:#3d6779;stop-opacity:1"
         offset="1"
         id="stop4398" />
    </linearGradient>
    <linearGradient
       inkscape:collect="always"
       xlink:href="#linearGradient4525"
       id="linearGradient4392"
       x1="507.90683"
       y1="655.78607"
       x2="507.90683"
       y2="168.87509"
       gradientUnits="userSpaceOnUse"
       gradientTransform="matrix(0.40698362,0,0,0.40698362,-10.010393,-23.526721)" />
    <linearGradient
       gradientTransform="matrix(0.40698362,0,0,0.40698362,-10.010393,-23.526721)"
       inkscape:collect="always"
       xlink:href="#linearGradient4394"
       id="linearGradient4400-8"
       x1="265.34"
       y1="685.2868"
       x2="507.90683"
       y2="168.87509"
       gradientUnits="userSpaceOnUse" />
    <linearGradient
       gradientTransform="matrix(0.40698362,0,0,0.40698362,227.31087,-23.526742)"
       inkscape:collect="always"
       xlink:href="#linearGradient4585"
       id="linearGradient4400-8-3"
       x1="265.34"
       y1="685.2868"
       x2="507.90683"
       y2="168.87509"
       gradientUnits="userSpaceOnUse" />
    <linearGradient
       inkscape:collect="always"
       xlink:href="#linearGradient4571"
       id="linearGradient4392-4"
       x1="507.90683"
       y1="655.78607"
       x2="507.90683"
       y2="168.87509"
       gradientUnits="userSpaceOnUse"
       gradientTransform="matrix(0.40698362,0,0,0.40698362,227.31087,-23.526742)" />
    <linearGradient
       gradientTransform="matrix(0.40698362,0,0,0.40698362,463.68657,-23.526741)"
       inkscape:collect="always"
       xlink:href="#linearGradient4637"
       id="linearGradient4400-8-3-6"
       x1="265.34"
       y1="685.2868"
       x2="507.90683"
       y2="168.87509"
       gradientUnits="userSpaceOnUse" />
    <linearGradient
       inkscape:collect="always"
       xlink:href="#linearGradient4629"
       id="linearGradient4392-4-3"
       x1="507.90683"
       y1="655.78607"
       x2="507.90683"
       y2="168.87509"
       gradientUnits="userSpaceOnUse"
       gradientTransform="matrix(0.40698362,0,0,0.40698362,463.68657,-23.526741)" />
    <linearGradient
       gradientTransform="matrix(0.40698362,0,0,0.40698362,-10.010633,211.90263)"
       inkscape:collect="always"
       xlink:href="#linearGradient4689"
       id="linearGradient4400-8-3-6-8"
       x1="265.34"
       y1="685.2868"
       x2="507.90683"
       y2="168.87509"
       gradientUnits="userSpaceOnUse" />
    <linearGradient
       inkscape:collect="always"
       xlink:href="#linearGradient4681"
       id="linearGradient4392-4-3-4"
       x1="507.90683"
       y1="655.78607"
       x2="507.90683"
       y2="168.87509"
       gradientUnits="userSpaceOnUse"
       gradientTransform="matrix(0.40698362,0,0,0.40698362,-10.010397,211.90263)" />
    <linearGradient
       gradientTransform="matrix(0.40698362,0,0,0.40698362,230.34048,211.56098)"
       inkscape:collect="always"
       xlink:href="#linearGradient4747"
       id="linearGradient4400-8-7"
       x1="265.34"
       y1="685.2868"
       x2="507.90683"
       y2="168.87509"
       gradientUnits="userSpaceOnUse" />
    <linearGradient
       inkscape:collect="always"
       xlink:href="#linearGradient4733"
       id="linearGradient4392-7"
       x1="507.90683"
       y1="655.78607"
       x2="507.90683"
       y2="168.87509"
       gradientUnits="userSpaceOnUse"
       gradientTransform="matrix(0.40698362,0,0,0.40698362,230.34048,211.56098)" />
    <linearGradient
       gradientTransform="matrix(0.40698362,0,0,0.40698362,463.68657,211.34567)"
       inkscape:collect="always"
       xlink:href="#linearGradient5999"
       id="linearGradient4400-8-3-6-3"
       x1="265.34"
       y1="685.2868"
       x2="507.90683"
       y2="168.87509"
       gradientUnits="userSpaceOnUse" />
    <linearGradient
       inkscape:collect="always"
       xlink:href="#linearGradient5990"
       id="linearGradient4392-4-3-49"
       x1="507.90683"
       y1="655.78607"
       x2="507.90683"
       y2="168.87509"
       gradientUnits="userSpaceOnUse"
       gradientTransform="matrix(0.40698362,0,0,0.40698362,463.68657,211.34567)" />
  </defs>
  <sodipodi:namedview
     id="base"
     pagecolor="#ffffff"
     bordercolor="#666666"
     borderopacity="1.0"
     inkscape:pageopacity="0.0"
     inkscape:pageshadow="2"
     inkscape:zoom="0.75785828"
     inkscape:cx="336.91169"
     inkscape:cy="181.06224"
     inkscape:document-units="px"
     inkscape:current-layer="layer1"
     showgrid="false"
     inkscape:window-width="1680"
     inkscape:window-height="987"
     inkscape:window-x="-8"
     inkscape:window-y="-8"
     inkscape:window-maximized="1"
     units="px"
     fit-margin-top="10"
     fit-margin-left="10"
     fit-margin-right="10"
     fit-margin-bottom="10" />
  <metadata
     id="metadata7">
    <rdf:RDF>
      <cc:Work
         rdf:about="">
        <dc:format>image/svg+xml</dc:format>
        <dc:type
           rdf:resource="http://purl.org/dc/dcmitype/StillImage" />
        <dc:title />
      </cc:Work>
    </rdf:RDF>
  </metadata>
  <g
     inkscape:label="Layer 1"
     inkscape:groupmode="layer"
     id="layer1"
     transform="translate(-19.981864,-31.237704)">
    <path
       style="color:#000000;clip-rule:nonzero;display:inline;overflow:visible;visibility:visible;opacity:1;isolation:auto;mix-blend-mode:normal;color-interpolation:sRGB;color-interpolation-filters:linearRGB;solid-color:#000000;solid-opacity:1;fill:url(#linearGradient4392);fill-opacity:1;fill-rule:evenodd;stroke:none;stroke-width:18;stroke-linecap:butt;stroke-linejoin:miter;stroke-miterlimit:4;stroke-dasharray:none;stroke-dashoffset:0;stroke-opacity:0.9372549;marker:none;color-rendering:auto;image-rendering:auto;shape-rendering:auto;text-rendering:auto;enable-background:accumulate"
       d="m 72.817137,44.900579 c -21.70138,0 -39.17218,17.47079 -39.17218,39.17218 0,21.701381 17.4708,39.172171 39.17218,39.172171 h 27.815573 l -55.479333,55.47934 c -15.34519,15.34519 -15.34519,40.05227 0,55.39747 15.34519,15.34519 40.05307,15.34519 55.398253,0 l 55.47934,-55.47934 v 27.81637 c 0,21.70138 17.47079,39.17218 39.17217,39.17218 21.70138,0 39.17218,-17.4708 39.17218,-39.17218 V 84.072759 c 0,-21.70139 -17.4708,-39.17218 -39.17218,-39.17218 z"
       id="rect4147-9"
       inkscape:connector-curvature="0" />
    <path
       inkscape:connector-curvature="0"
       style="color:#000000;clip-rule:nonzero;display:inline;overflow:visible;visibility:visible;opacity:1;isolation:auto;mix-blend-mode:normal;color-interpolation:sRGB;color-interpolation-filters:linearRGB;solid-color:#000000;solid-opacity:1;fill:none;fill-opacity:1;fill-rule:evenodd;stroke:url(#linearGradient4400-8);stroke-width:7.32570505;stroke-linecap:butt;stroke-linejoin:miter;stroke-miterlimit:4;stroke-dasharray:none;stroke-dashoffset:0;stroke-opacity:0.9372549;marker:none;color-rendering:auto;image-rendering:auto;shape-rendering:auto;text-rendering:auto;enable-background:accumulate"
       d="m 72.817137,44.900579 c -21.70138,0 -39.17218,17.47079 -39.17218,39.17218 0,21.701381 17.4708,39.172171 39.17218,39.172171 h 27.815573 l -55.479333,55.47934 c -15.34519,15.34519 -15.34519,40.05227 0,55.39747 15.34519,15.34519 40.05307,15.34519 55.398253,0 l 55.47934,-55.47934 v 27.81637 c 0,21.70138 17.47079,39.17218 39.17217,39.17218 21.70138,0 39.17218,-17.4708 39.17218,-39.17218 V 84.072759 c 0,-21.70139 -17.4708,-39.17218 -39.17218,-39.17218 z"
       id="rect4147-9-4" />
    <path
       style="color:#000000;clip-rule:nonzero;display:inline;overflow:visible;visibility:visible;opacity:1;isolation:auto;mix-blend-mode:normal;color-interpolation:sRGB;color-interpolation-filters:linearRGB;solid-color:#000000;solid-opacity:1;fill:url(#linearGradient4392-4);fill-opacity:1;fill-rule:evenodd;stroke:none;stroke-width:18;stroke-linecap:butt;stroke-linejoin:miter;stroke-miterlimit:4;stroke-dasharray:none;stroke-dashoffset:0;stroke-opacity:0.9372549;marker:none;color-rendering:auto;image-rendering:auto;shape-rendering:auto;text-rendering:auto;enable-background:accumulate"
       d="m 310.1384,44.900557 c -21.70138,0 -39.17218,17.470791 -39.17218,39.172181 0,21.701382 17.4708,39.172172 39.17218,39.172172 h 27.81558 l -55.47934,55.47933 c -15.34519,15.34519 -15.34519,40.05227 0,55.39747 15.34519,15.34519 40.05307,15.34519 55.39826,0 l 55.47934,-55.47934 v 27.81637 c 0,21.70138 17.47079,39.17218 39.17217,39.17218 21.70138,0 39.17218,-17.4708 39.17218,-39.17218 V 84.072738 c 0,-21.70139 -17.4708,-39.172181 -39.17218,-39.172181 z"
       id="rect4147-9-1"
       inkscape:connector-curvature="0" />
    <path
       inkscape:connector-curvature="0"
       style="color:#000000;clip-rule:nonzero;display:inline;overflow:visible;visibility:visible;opacity:1;isolation:auto;mix-blend-mode:normal;color-interpolation:sRGB;color-interpolation-filters:linearRGB;solid-color:#000000;solid-opacity:1;fill:none;fill-opacity:1;fill-rule:evenodd;stroke:url(#linearGradient4400-8-3);stroke-width:7.32570505;stroke-linecap:butt;stroke-linejoin:miter;stroke-miterlimit:4;stroke-dasharray:none;stroke-dashoffset:0;stroke-opacity:0.9372549;marker:none;color-rendering:auto;image-rendering:auto;shape-rendering:auto;text-rendering:auto;enable-background:accumulate"
       d="m 310.1384,44.900557 c -21.70138,0 -39.17218,17.470791 -39.17218,39.172181 0,21.701382 17.4708,39.172172 39.17218,39.172172 h 27.81558 l -55.47934,55.47933 c -15.34519,15.34519 -15.34519,40.05227 0,55.39747 15.34519,15.34519 40.05307,15.34519 55.39826,0 l 55.47934,-55.47934 v 27.81637 c 0,21.70138 17.47079,39.17218 39.17217,39.17218 21.70138,0 39.17218,-17.4708 39.17218,-39.17218 V 84.072738 c 0,-21.70139 -17.4708,-39.172181 -39.17218,-39.172181 z"
       id="rect4147-9-4-8" />
    <path
       style="color:#000000;clip-rule:nonzero;display:inline;overflow:visible;visibility:visible;opacity:1;isolation:auto;mix-blend-mode:normal;color-interpolation:sRGB;color-interpolation-filters:linearRGB;solid-color:#000000;solid-opacity:1;fill:url(#linearGradient4392-4-3);fill-opacity:1;fill-rule:evenodd;stroke:none;stroke-width:18;stroke-linecap:butt;stroke-linejoin:miter;stroke-miterlimit:4;stroke-dasharray:none;stroke-dashoffset:0;stroke-opacity:0.9372549;marker:none;color-rendering:auto;image-rendering:auto;shape-rendering:auto;text-rendering:auto;enable-background:accumulate"
       d="m 546.5141,44.900557 c -21.70138,0 -39.17218,17.470792 -39.17218,39.172182 0,21.701381 17.4708,39.172171 39.17218,39.172171 h 27.81558 l -55.47934,55.47933 c -15.34519,15.34519 -15.34519,40.05227 0,55.39747 15.34519,15.34519 40.05307,15.34519 55.39826,0 l 55.47934,-55.47934 v 27.81637 c 0,21.70138 17.47079,39.17218 39.17217,39.17218 21.70138,0 39.17218,-17.4708 39.17218,-39.17218 V 84.072739 c 0,-21.70139 -17.4708,-39.172182 -39.17218,-39.172182 z"
       id="rect4147-9-1-1"
       inkscape:connector-curvature="0" />
    <path
       inkscape:connector-curvature="0"
       style="color:#000000;clip-rule:nonzero;display:inline;overflow:visible;visibility:visible;opacity:1;isolation:auto;mix-blend-mode:normal;color-interpolation:sRGB;color-interpolation-filters:linearRGB;solid-color:#000000;solid-opacity:1;fill:none;fill-opacity:1;fill-rule:evenodd;stroke:url(#linearGradient4400-8-3-6);stroke-width:7.32570505;stroke-linecap:butt;stroke-linejoin:miter;stroke-miterlimit:4;stroke-dasharray:none;stroke-dashoffset:0;stroke-opacity:0.9372549;marker:none;color-rendering:auto;image-rendering:auto;shape-rendering:auto;text-rendering:auto;enable-background:accumulate"
       d="m 546.5141,44.900557 c -21.70138,0 -39.17218,17.470792 -39.17218,39.172182 0,21.701381 17.4708,39.172171 39.17218,39.172171 h 27.81558 l -55.47934,55.47933 c -15.34519,15.34519 -15.34519,40.05227 0,55.39747 15.34519,15.34519 40.05307,15.34519 55.39826,0 l 55.47934,-55.47934 v 27.81637 c 0,21.70138 17.47079,39.17218 39.17217,39.17218 21.70138,0 39.17218,-17.4708 39.17218,-39.17218 V 84.072739 c 0,-21.70139 -17.4708,-39.172182 -39.17218,-39.172182 z"
       id="rect4147-9-4-8-4" />
    <path
       style="color:#000000;clip-rule:nonzero;display:inline;overflow:visible;visibility:visible;opacity:1;isolation:auto;mix-blend-mode:normal;color-interpolation:sRGB;color-interpolation-filters:linearRGB;solid-color:#000000;solid-opacity:1;fill:url(#linearGradient4392-4-3-4);fill-opacity:1;fill-rule:evenodd;stroke:none;stroke-width:18;stroke-linecap:butt;stroke-linejoin:miter;stroke-miterlimit:4;stroke-dasharray:none;stroke-dashoffset:0;stroke-opacity:0.9372549;marker:none;color-rendering:auto;image-rendering:auto;shape-rendering:auto;text-rendering:auto;enable-background:accumulate"
       d="m 72.817133,280.32993 c -21.70138,0 -39.17218,17.47079 -39.17218,39.17218 0,21.70138 17.4708,39.17217 39.17218,39.17217 h 27.815577 l -55.479337,55.47933 c -15.34519,15.34519 -15.34519,40.05227 0,55.39747 15.34519,15.34519 40.05307,15.34519 55.398257,0 l 55.47934,-55.47934 v 27.81637 c 0,21.70138 17.47079,39.17218 39.17217,39.17218 21.70138,0 39.17218,-17.4708 39.17218,-39.17218 v -122.386 c 0,-21.70139 -17.4708,-39.17218 -39.17218,-39.17218 z"
       id="rect4147-9-1-1-1"
       inkscape:connector-curvature="0" />
    <path
       inkscape:connector-curvature="0"
       style="color:#000000;clip-rule:nonzero;display:inline;overflow:visible;visibility:visible;opacity:1;isolation:auto;mix-blend-mode:normal;color-interpolation:sRGB;color-interpolation-filters:linearRGB;solid-color:#000000;solid-opacity:1;fill:none;fill-opacity:1;fill-rule:evenodd;stroke:url(#linearGradient4400-8-3-6-8);stroke-width:7.32570505;stroke-linecap:butt;stroke-linejoin:miter;stroke-miterlimit:4;stroke-dasharray:none;stroke-dashoffset:0;stroke-opacity:0.9372549;marker:none;color-rendering:auto;image-rendering:auto;shape-rendering:auto;text-rendering:auto;enable-background:accumulate"
       d="m 72.816897,280.32993 c -21.70138,0 -39.17218,17.47079 -39.17218,39.17218 0,21.70138 17.4708,39.17217 39.17218,39.17217 h 27.815583 l -55.479343,55.47933 c -15.34519,15.34519 -15.34519,40.05227 0,55.39747 15.34519,15.34519 40.05307,15.34519 55.398263,0 l 55.47934,-55.47934 v 27.81637 c 0,21.70138 17.47079,39.17218 39.17217,39.17218 21.70138,0 39.17218,-17.4708 39.17218,-39.17218 v -122.386 c 0,-21.70139 -17.4708,-39.17218 -39.17218,-39.17218 z"
       id="rect4147-9-4-8-4-9" />
    <path
       style="color:#000000;clip-rule:nonzero;display:inline;overflow:visible;visibility:visible;opacity:1;isolation:auto;mix-blend-mode:normal;color-interpolation:sRGB;color-interpolation-filters:linearRGB;solid-color:#000000;solid-opacity:1;fill:url(#linearGradient4392-7);fill-opacity:1;fill-rule:evenodd;stroke:none;stroke-width:18;stroke-linecap:butt;stroke-linejoin:miter;stroke-miterlimit:4;stroke-dasharray:none;stroke-dashoffset:0;stroke-opacity:0.9372549;marker:none;color-rendering:auto;image-rendering:auto;shape-rendering:auto;text-rendering:auto;enable-background:accumulate"
       d="m 313.16801,279.98828 c -21.70138,0 -39.17218,17.47079 -39.17218,39.17218 0,21.70138 17.4708,39.17217 39.17218,39.17217 h 27.81558 l -55.47934,55.47933 c -15.34519,15.34519 -15.34519,40.05227 0,55.39747 15.34519,15.34519 40.05307,15.34519 55.39826,0 l 55.47934,-55.47934 v 27.81637 c 0,21.70138 17.47079,39.17218 39.17217,39.17218 21.70138,0 39.17218,-17.4708 39.17218,-39.17218 v -122.386 c 0,-21.70139 -17.4708,-39.17218 -39.17218,-39.17218 z"
       id="rect4147-9-0"
       inkscape:connector-curvature="0" />
    <path
       inkscape:connector-curvature="0"
       style="color:#000000;clip-rule:nonzero;display:inline;overflow:visible;visibility:visible;opacity:1;isolation:auto;mix-blend-mode:normal;color-interpolation:sRGB;color-interpolation-filters:linearRGB;solid-color:#000000;solid-opacity:1;fill:none;fill-opacity:1;fill-rule:evenodd;stroke:url(#linearGradient4400-8-7);stroke-width:7.32570505;stroke-linecap:butt;stroke-linejoin:miter;stroke-miterlimit:4;stroke-dasharray:none;stroke-dashoffset:0;stroke-opacity:0.9372549;marker:none;color-rendering:auto;image-rendering:auto;shape-rendering:auto;text-rendering:auto;enable-background:accumulate"
       d="m 313.16801,279.98828 c -21.70138,0 -39.17218,17.47079 -39.17218,39.17218 0,21.70138 17.4708,39.17217 39.17218,39.17217 h 27.81558 l -55.47934,55.47933 c -15.34519,15.34519 -15.34519,40.05227 0,55.39747 15.34519,15.34519 40.05307,15.34519 55.39826,0 l 55.47934,-55.47934 v 27.81637 c 0,21.70138 17.47079,39.17218 39.17217,39.17218 21.70138,0 39.17218,-17.4708 39.17218,-39.17218 v -122.386 c 0,-21.70139 -17.4708,-39.17218 -39.17218,-39.17218 z"
       id="rect4147-9-4-3" />
    <path
       style="color:#000000;clip-rule:nonzero;display:inline;overflow:visible;visibility:visible;opacity:1;isolation:auto;mix-blend-mode:normal;color-interpolation:sRGB;color-interpolation-filters:linearRGB;solid-color:#000000;solid-opacity:1;fill:url(#linearGradient4392-4-3-49);fill-opacity:1;fill-rule:evenodd;stroke:none;stroke-width:18;stroke-linecap:butt;stroke-linejoin:miter;stroke-miterlimit:4;stroke-dasharray:none;stroke-dashoffset:0;stroke-opacity:0.9372549;marker:none;color-rendering:auto;image-rendering:auto;shape-rendering:auto;text-rendering:auto;enable-background:accumulate"
       d="m 546.5141,279.77297 c -21.70138,0 -39.17218,17.47079 -39.17218,39.17218 0,21.70138 17.4708,39.17217 39.17218,39.17217 h 27.81558 l -55.47934,55.47933 c -15.34519,15.34519 -15.34519,40.05227 0,55.39747 15.34519,15.34519 40.05307,15.34519 55.39826,0 l 55.47933,-55.47934 v 27.81637 c 0,21.70138 17.47079,39.17218 39.17217,39.17218 21.70138,0 39.17218,-17.4708 39.17218,-39.17218 v -122.386 c 0,-21.70139 -17.4708,-39.17218 -39.17218,-39.17218 z"
       id="rect4147-9-1-1-8"
       inkscape:connector-curvature="0" />
    <path
       inkscape:connector-curvature="0"
       style="color:#000000;clip-rule:nonzero;display:inline;overflow:visible;visibility:visible;opacity:1;isolation:auto;mix-blend-mode:normal;color-interpolation:sRGB;color-interpolation-filters:linearRGB;solid-color:#000000;solid-opacity:1;fill:none;fill-opacity:1;fill-rule:evenodd;stroke:url(#linearGradient4400-8-3-6-3);stroke-width:7.32570505;stroke-linecap:butt;stroke-linejoin:miter;stroke-miterlimit:4;stroke-dasharray:none;stroke-dashoffset:0;stroke-opacity:0.9372549;marker:none;color-rendering:auto;image-rendering:auto;shape-rendering:auto;text-rendering:auto;enable-background:accumulate"
       d="m 546.5141,279.77297 c -21.70138,0 -39.17218,17.47079 -39.17218,39.17218 0,21.70138 17.4708,39.17217 39.17218,39.17217 h 27.81558 l -55.47934,55.47933 c -15.34519,15.34519 -15.34519,40.05227 0,55.39747 15.34519,15.34519 40.05307,15.34519 55.39826,0 l 55.47933,-55.47934 v 27.81637 c 0,21.70138 17.47079,39.17218 39.17217,39.17218 21.70138,0 39.17218,-17.4708 39.17218,-39.17218 v -122.386 c 0,-21.70139 -17.4708,-39.17218 -39.17218,-39.17218 z"
       id="rect4147-9-4-8-4-8" />
  </g>
</svg>
