<?xml version="1.0" encoding="UTF-8" standalone="no"?>
<!DOCTYPE svg PUBLIC "-//W3C//DTD SVG 1.1//EN" "http://www.w3.org/Graphics/SVG/1.1/DTD/svg11.dtd">
<svg width="100%" height="100%" viewBox="0 0 1200 1200" version="1.1" xmlns="http://www.w3.org/2000/svg" xmlns:xlink="http://www.w3.org/1999/xlink" xml:space="preserve" style="fill-rule:evenodd;clip-rule:evenodd;stroke-linecap:round;stroke-linejoin:round;stroke-miterlimit:1.5;">
    <g transform="matrix(1.0452,0,0,1.0452,-27.1179,-27.1179)">
        <g transform="matrix(0.707107,0.707107,-0.707107,0.707107,454.857,-167.025)">
            <rect x="568.421" y="363.158" width="153.158" height="153.158" style="fill:none;stroke:black;stroke-width:13.27px;"/>
        </g>
        <g transform="matrix(0.707107,0.707107,-0.707107,0.707107,238.259,-167.025)">
            <rect x="568.421" y="363.158" width="153.158" height="153.158" style="fill:none;stroke:black;stroke-width:13.27px;"/>
        </g>
        <g transform="matrix(0.707107,0.707107,-0.707107,0.707107,21.6611,-167.025)">
            <rect x="568.421" y="363.158" width="153.158" height="153.158" style="fill:none;stroke:black;stroke-width:13.27px;"/>
        </g>
        <g transform="matrix(0.707107,0.707107,-0.707107,0.707107,671.455,-167.025)">
            <rect x="568.421" y="363.158" width="153.158" height="153.158" style="fill:none;stroke:black;stroke-width:13.27px;"/>
        </g>
        <g transform="matrix(0.707107,0.707107,-0.707107,0.707107,888.053,-167.025)">
            <rect x="568.421" y="363.158" width="153.158" height="153.158" style="fill:none;stroke:black;stroke-width:13.27px;"/>
        </g>
    </g>
    <g transform="matrix(1.0452,0,0,1.0452,86.0758,-27.1179)">
        <g transform="matrix(0.707107,0.707107,-0.707107,0.707107,563.156,-383.623)">
            <rect x="568.421" y="363.158" width="153.158" height="153.158" style="fill:none;stroke:black;stroke-width:9.88px;"/>
        </g>
        <g transform="matrix(0.707107,0.707107,-0.707107,0.707107,346.558,-383.623)">
            <rect x="568.421" y="363.158" width="153.158" height="153.158" style="fill:none;stroke:black;stroke-width:9.88px;"/>
        </g>
        <g transform="matrix(0.707107,0.707107,-0.707107,0.707107,129.96,-383.623)">
            <rect x="568.421" y="363.158" width="153.158" height="153.158" style="fill:none;stroke:black;stroke-width:9.88px;"/>
        </g>
        <g transform="matrix(0.707107,0.707107,-0.707107,0.707107,779.754,-383.623)">
            <rect x="568.421" y="363.158" width="153.158" height="153.158" style="fill:none;stroke:black;stroke-width:9.88px;"/>
        </g>
    </g>
    <g transform="matrix(1.0452,0,0,1.0452,199.27,-27.1179)">
        <g transform="matrix(0.707107,0.707107,-0.707107,0.707107,671.455,-600.221)">
            <rect x="568.421" y="363.158" width="153.158" height="153.158" style="fill:none;stroke:black;stroke-width:5.65px;"/>
        </g>
        <g transform="matrix(0.707107,0.707107,-0.707107,0.707107,454.857,-600.221)">
            <rect x="568.421" y="363.158" width="153.158" height="153.158" style="fill:none;stroke:black;stroke-width:5.65px;"/>
        </g>
        <g transform="matrix(0.707107,0.707107,-0.707107,0.707107,238.259,-600.221)">
            <rect x="568.421" y="363.158" width="153.158" height="153.158" style="fill:none;stroke:black;stroke-width:5.65px;"/>
        </g>
    </g>
    <g transform="matrix(1.0452,0,0,1.0452,-253.505,-27.1179)">
        <g transform="matrix(0.707107,0.707107,-0.707107,0.707107,671.455,266.171)">
            <rect x="568.421" y="363.158" width="153.158" height="153.158" style="fill:none;stroke:black;stroke-width:5.65px;"/>
        </g>
        <g transform="matrix(0.707107,0.707107,-0.707107,0.707107,454.857,266.171)">
            <rect x="568.421" y="363.158" width="153.158" height="153.158" style="fill:none;stroke:black;stroke-width:5.65px;"/>
        </g>
        <g transform="matrix(0.707107,0.707107,-0.707107,0.707107,238.259,266.171)">
            <rect x="568.421" y="363.158" width="153.158" height="153.158" style="fill:none;stroke:black;stroke-width:5.65px;"/>
        </g>
    </g>
    <g transform="matrix(1.0452,0,0,1.0452,-140.312,-27.1179)">
        <g transform="matrix(0.707107,0.707107,-0.707107,0.707107,563.156,49.5732)">
            <rect x="568.421" y="363.158" width="153.158" height="153.158" style="fill:none;stroke:black;stroke-width:9.88px;"/>
        </g>
        <g transform="matrix(0.707107,0.707107,-0.707107,0.707107,346.558,49.5732)">
            <rect x="568.421" y="363.158" width="153.158" height="153.158" style="fill:none;stroke:black;stroke-width:9.88px;"/>
        </g>
        <g transform="matrix(0.707107,0.707107,-0.707107,0.707107,129.96,49.5732)">
            <rect x="568.421" y="363.158" width="153.158" height="153.158" style="fill:none;stroke:black;stroke-width:9.88px;"/>
        </g>
        <g transform="matrix(0.707107,0.707107,-0.707107,0.707107,779.754,49.5732)">
            <rect x="568.421" y="363.158" width="153.158" height="153.158" style="fill:none;stroke:black;stroke-width:9.88px;"/>
        </g>
    </g>
</svg>
