<?xml version="1.0" encoding="UTF-8" standalone="no"?>
<!DOCTYPE svg PUBLIC "-//W3C//DTD SVG 1.1//EN" "http://www.w3.org/Graphics/SVG/1.1/DTD/svg11.dtd">
<svg width="100%" height="100%" viewBox="0 0 513 64" version="1.1" xmlns="http://www.w3.org/2000/svg" xmlns:xlink="http://www.w3.org/1999/xlink" xml:space="preserve" style="fill-rule:evenodd;clip-rule:evenodd;">
    <g id="Layer-1" transform="matrix(1,0,0,1,0,-940.362)">
        <g transform="matrix(1,0,0,1,0,929.679)">
            <path d="M501.322,31.649C501.322,25.559 496.378,20.614 490.288,20.614L21.712,20.614C15.622,20.614 10.678,25.559 10.678,31.649L10.678,53.718C10.678,59.808 15.622,64.752 21.712,64.752L490.288,64.752C496.378,64.752 501.322,59.808 501.322,53.718L501.322,31.649Z" style="fill:url(#_Linear1);stroke:black;stroke-width:0.86px;"/>
        </g>
        <g transform="matrix(0.41363,0,0,1,293.96,929.679)">
            <path d="M501.322,31.649C501.322,25.559 489.369,20.614 474.645,20.614L37.355,20.614C22.631,20.614 10.678,25.559 10.678,31.649L10.678,53.718C10.678,59.808 22.631,64.752 37.355,64.752L474.645,64.752C489.369,64.752 501.322,59.808 501.322,53.718L501.322,31.649Z" style="fill:url(#_Linear2);stroke:black;stroke-width:0.86px;"/>
        </g>
    </g>
    <defs>
        <linearGradient id="_Linear1" x1="0" y1="0" x2="1" y2="0" gradientUnits="userSpaceOnUse" gradientTransform="matrix(4.81687e-15,46.0631,-78.6654,2.82055e-15,174.38,21.2556)"><stop offset="0" style="stop-color:rgb(165,165,165);stop-opacity:1"/><stop offset="0.45" style="stop-color:rgb(111,111,111);stop-opacity:1"/><stop offset="1" style="stop-color:rgb(153,153,153);stop-opacity:1"/></linearGradient>
        <linearGradient id="_Linear2" x1="0" y1="0" x2="1" y2="0" gradientUnits="userSpaceOnUse" gradientTransform="matrix(4.81687e-15,46.0631,-78.6654,2.82055e-15,174.38,21.2556)"><stop offset="0" style="stop-color:rgb(243,243,243);stop-opacity:1"/><stop offset="0.45" style="stop-color:rgb(126,126,126);stop-opacity:1"/><stop offset="1" style="stop-color:rgb(252,252,252);stop-opacity:1"/></linearGradient>
    </defs>
</svg>
