<?xml version="1.0" encoding="UTF-8" standalone="no"?>
<!DOCTYPE svg PUBLIC "-//W3C//DTD SVG 1.1//EN" "http://www.w3.org/Graphics/SVG/1.1/DTD/svg11.dtd">
<svg width="100%" height="100%" viewBox="0 0 12 12" version="1.1" xmlns="http://www.w3.org/2000/svg" xmlns:xlink="http://www.w3.org/1999/xlink" xml:space="preserve" style="fill-rule:evenodd;clip-rule:evenodd;stroke-linejoin:round;stroke-miterlimit:1.41421;">
    <g id="rect4138.2e..-5.2e..-7.2e..-5" transform="matrix(1,0,0,1,8.7615,-1040.36)">
        <path d="M-17.523,1046.36L-11.928,1051.96L6.405,1051.96L12,1046.36L6.403,1040.77L5.326,1040.77L-10.849,1040.77L-11.926,1040.77L-17.521,1046.36L-17.523,1046.36Z" style="fill:rgb(221,221,221);"/>
        <path d="M12,1046.36L6.405,1051.96L-11.928,1051.96L-17.523,1046.36L-17.521,1046.36L-11.926,1040.77L6.403,1040.77L12,1046.36ZM-11.838,1040.98L-17.221,1046.36L-11.84,1051.75L6.317,1051.75L11.699,1046.36L6.315,1040.98L5.326,1040.98L-11.838,1040.98Z" style="fill:rgb(74,74,74);"/>
    </g>
</svg>
